<?xml version="1.0" encoding="iso-8859-1"?>
<!-- Generator: Adobe Illustrator 19.0.0, SVG Export Plug-In . SVG Version: 6.00 Build 0)  -->
<svg version="1.1" id="Layer_1" xmlns="http://www.w3.org/2000/svg" xmlns:xlink="http://www.w3.org/1999/xlink" x="0px" y="0px"
	 viewBox="0 0 512 512" style="enable-background:new 0 0 512 512;" xml:space="preserve">
<path style="fill:#804D00;" d="M452.981,121.555c-40.319-24.705-91.838-21.309-128.708,8.297l0,0v54.535L512,184.495
	C498.245,155.739,475.855,135.571,452.981,121.555z"/>
<path style="fill:#BA7400;" d="M144.821,375.335c0,0-43.338,60.775-0.367,136.658l72.733-106.401l-55.435-47.872L144.821,375.335z"
	/>
<path style="fill:#804D00;" d="M367.179,375.335c0,0,43.338,60.775,0.367,136.658l-72.733-106.401l55.435-47.872L367.179,375.335z"
	/>
<g>
	<path style="fill:#BA7400;" d="M59.019,121.555c40.319-24.705,91.838-21.309,128.708,8.297l0,0v54.535L0,184.495
		C13.755,155.739,36.145,135.571,59.019,121.555z"/>
	<path style="fill:#BA7400;" d="M256,0.007L256,0.007c-26.761,0-48.456,21.694-48.456,48.456v89.02h96.912v-89.02
		C304.456,21.701,282.761,0.007,256,0.007z"/>
</g>
<path style="fill:#804D00;" d="M256,0.007L256,0.007c0,24.791,0,137.476,0,137.476h48.456v-89.02
	C304.456,21.701,282.761,0.007,256,0.007z"/>
<ellipse style="fill:#8ADB53;" cx="256" cy="276.05" rx="137.68" ry="168.33"/>
<path style="fill:#C3EA21;" d="M176.6,138.527c-35.255,30.482-58.276,80.715-58.276,137.524H256L176.6,138.527z"/>
<g>
	<path style="fill:#8ADB53;" d="M256,276.051L256,276.051L256,276.051z"/>
	<path style="fill:#8ADB53;" d="M393.676,276.051c0-56.809-23.021-107.042-58.276-137.524L256,276.051H393.676z"/>
</g>
<path style="fill:#4FC16E;" d="M256,276.051l79.4-137.524c-22.437-19.399-49.828-30.802-79.4-30.802s-56.962,11.402-79.4,30.802
	L256,276.051L256,276.051z"/>
<path style="fill:#369151;" d="M256,276.051l79.4-137.524c-22.437-19.399-49.828-30.802-79.4-30.802
	C256,150.28,256,276.051,256,276.051L256,276.051z"/>
<path style="fill:#4FC16E;" d="M393.676,276.051H256l0,0l79.4,137.524C370.655,383.093,393.676,332.861,393.676,276.051z"/>
<path style="fill:#8ADB53;" d="M256,276.051H118.324c0,56.809,23.021,107.042,58.276,137.524L256,276.051L256,276.051z"/>
<path style="fill:#4FC16E;" d="M176.6,413.575c22.437,19.399,49.828,30.802,79.4,30.802s56.962-11.402,79.4-30.802L256,276.051
	L176.6,413.575z"/>
<g>
	<path style="fill:#369151;" d="M256,444.377c29.571,0,56.962-11.402,79.4-30.802L256,276.051C256,276.051,256,413.575,256,444.377z
		"/>
	<polygon style="fill:#369151;" points="289.001,218.891 222.999,218.891 189.998,276.051 222.999,333.211 289.001,333.211 
		322.003,276.051 	"/>
</g>
<polygon style="fill:#17662B;" points="289.001,218.891 256,218.891 256,333.211 289.001,333.211 322.003,276.051 "/>
<g>
</g>
<g>
</g>
<g>
</g>
<g>
</g>
<g>
</g>
<g>
</g>
<g>
</g>
<g>
</g>
<g>
</g>
<g>
</g>
<g>
</g>
<g>
</g>
<g>
</g>
<g>
</g>
<g>
</g>
</svg>
